<svg width="50" height="50" viewBox="0 0 50 50" fill="none" xmlns="http://www.w3.org/2000/svg">
<path d="M26.5625 15.625V24.1152L33.6172 28.3477C33.9725 28.5611 34.2286 28.9069 34.3289 29.3091C34.4293 29.7113 34.3658 30.1368 34.1524 30.4922C33.9389 30.8475 33.5931 31.1036 33.1909 31.2039C32.7887 31.3043 32.3632 31.2408 32.0078 31.0273L24.1953 26.3398C23.9641 26.2009 23.7728 26.0045 23.64 25.7697C23.5072 25.5349 23.4374 25.2698 23.4375 25V15.625C23.4375 15.2106 23.6021 14.8132 23.8952 14.5202C24.1882 14.2271 24.5856 14.0625 25 14.0625C25.4144 14.0625 25.8118 14.2271 26.1049 14.5202C26.3979 14.8132 26.5625 15.2106 26.5625 15.625ZM43.75 10.9375C43.3356 10.9375 42.9382 11.1021 42.6452 11.3952C42.3521 11.6882 42.1875 12.0856 42.1875 12.5V16.0156C40.9473 14.5781 39.6816 13.1934 38.2578 11.752C35.6521 9.14592 32.3361 7.36555 28.7243 6.63331C25.1125 5.90108 21.3649 6.24945 17.95 7.6349C14.535 9.02035 11.6041 11.3814 9.52332 14.4231C7.44258 17.4648 6.30434 21.0523 6.25082 24.7372C6.1973 28.4221 7.23087 32.0411 9.22239 35.1419C11.2139 38.2428 14.0751 40.688 17.4484 42.172C20.8216 43.6561 24.5575 44.1131 28.189 43.4861C31.8206 42.8591 35.1869 41.1758 37.8672 38.6465C38.0165 38.5054 38.1365 38.3363 38.2204 38.1489C38.3044 37.9614 38.3505 37.7593 38.3563 37.554C38.3621 37.3487 38.3275 37.1442 38.2543 36.9523C38.181 36.7604 38.0708 36.5848 37.9297 36.4356C37.7886 36.2863 37.6195 36.1662 37.4321 36.0823C37.2446 35.9984 37.0425 35.9522 36.8372 35.9464C36.6319 35.9406 36.4274 35.9753 36.2355 36.0485C36.0436 36.1217 35.868 36.232 35.7188 36.3731C33.4845 38.4787 30.6794 39.8794 27.6538 40.4003C24.6282 40.9213 21.5161 40.5393 18.7063 39.3022C15.8964 38.0651 13.5133 36.0276 11.8545 33.4442C10.1957 30.8607 9.33476 27.8459 9.37914 24.7761C9.42351 21.7063 10.3713 18.7176 12.1041 16.1832C13.8368 13.6488 16.2779 11.681 19.1223 10.5256C21.9667 9.37022 25.0885 9.07839 28.0978 9.68657C31.107 10.2948 33.8705 11.776 36.043 13.9453C37.6328 15.5547 39.0254 17.1055 40.4297 18.75H35.9375C35.5231 18.75 35.1257 18.9146 34.8327 19.2077C34.5396 19.5007 34.375 19.8981 34.375 20.3125C34.375 20.7269 34.5396 21.1243 34.8327 21.4174C35.1257 21.7104 35.5231 21.875 35.9375 21.875H43.75C44.1644 21.875 44.5618 21.7104 44.8549 21.4174C45.1479 21.1243 45.3125 20.7269 45.3125 20.3125V12.5C45.3125 12.0856 45.1479 11.6882 44.8549 11.3952C44.5618 11.1021 44.1644 10.9375 43.75 10.9375Z" fill="black"/>
</svg>
