<svg width="60" height="60" viewBox="0 0 60 60" fill="none" xmlns="http://www.w3.org/2000/svg">
<path d="M58.125 18.75C58.1259 17.7222 57.8854 16.7085 57.4228 15.7906C56.9602 14.8728 56.2884 14.0764 55.4617 13.4657C54.635 12.855 53.6763 12.4471 52.663 12.2747C51.6498 12.1023 50.6102 12.1704 49.628 12.4734C48.6458 12.7764 47.7486 13.3058 47.0085 14.0191C46.2684 14.7323 45.7062 15.6095 45.3672 16.5798C45.0282 17.5501 44.9219 18.5865 45.0568 19.6054C45.1916 20.6244 45.564 21.5974 46.1438 22.4461L39.8648 30.1805L34.2188 17.2031C35.2485 16.3365 35.9869 15.1741 36.3338 13.8737C36.6807 12.5732 36.6193 11.1976 36.158 9.93315C35.6968 8.66874 34.8579 7.57674 33.7551 6.80516C32.6523 6.03359 31.3389 5.61975 29.993 5.61975C28.6471 5.61975 27.3337 6.03359 26.2309 6.80516C25.1281 7.57674 24.2892 8.66874 23.8279 9.93315C23.3666 11.1976 23.3053 12.5732 23.6522 13.8737C23.9991 15.1741 24.7375 16.3365 25.7672 17.2031L20.1352 30.1734L13.8563 22.4391C14.6628 21.2572 15.0611 19.8441 14.9903 18.415C14.9195 16.9859 14.3835 15.6191 13.4641 14.5228C12.5447 13.4265 11.2921 12.6607 9.8972 12.342C8.50228 12.0234 7.04144 12.1694 5.73717 12.7578C4.4329 13.3462 3.35667 14.3447 2.67239 15.6013C1.98812 16.858 1.73329 18.3038 1.94672 19.7186C2.16015 21.1335 2.83014 22.4398 3.85466 23.4386C4.87918 24.4375 6.20208 25.0741 7.62188 25.2516L11.0156 45.6164C11.1615 46.4919 11.6133 47.2873 12.2905 47.8611C12.9677 48.4349 13.8265 48.7499 14.7141 48.75H45.2859C46.1735 48.7499 47.0323 48.4349 47.7095 47.8611C48.3868 47.2873 48.8385 46.4919 48.9844 45.6164L52.3758 25.2609C53.9629 25.0627 55.423 24.2917 56.4817 23.0927C57.5404 21.8938 58.1248 20.3495 58.125 18.75ZM30 9.375C30.5563 9.375 31.1 9.53995 31.5625 9.84899C32.0251 10.158 32.3855 10.5973 32.5984 11.1112C32.8113 11.6251 32.867 12.1906 32.7585 12.7362C32.6499 13.2818 32.3821 13.7829 31.9887 14.1762C31.5954 14.5696 31.0943 14.8374 30.5487 14.946C30.0031 15.0545 29.4376 14.9988 28.9237 14.7859C28.4098 14.573 27.9705 14.2126 27.6615 13.75C27.3525 13.2875 27.1875 12.7438 27.1875 12.1875C27.1875 11.4416 27.4838 10.7262 28.0113 10.1988C28.5387 9.67132 29.2541 9.375 30 9.375ZM5.62501 18.75C5.62501 18.1937 5.78996 17.65 6.099 17.1875C6.40804 16.7249 6.84729 16.3645 7.36121 16.1516C7.87513 15.9387 8.44063 15.883 8.9862 15.9915C9.53177 16.1001 10.0329 16.3679 10.4262 16.7613C10.8196 17.1546 11.0874 17.6557 11.196 18.2013C11.3045 18.7469 11.2488 19.3124 11.0359 19.8263C10.823 20.3402 10.4626 20.7795 10 21.0885C9.53753 21.3976 8.99377 21.5625 8.43751 21.5625C7.69159 21.5625 6.97621 21.2662 6.44877 20.7387C5.92132 20.2113 5.62501 19.4959 5.62501 18.75ZM45.2859 45H14.7141L11.4516 25.4344L19.1695 34.9219C19.3443 35.1402 19.5658 35.3167 19.8176 35.4383C20.0695 35.56 20.3453 35.6238 20.625 35.625C20.7097 35.6254 20.7942 35.6199 20.8781 35.6086C21.1976 35.5652 21.5004 35.4401 21.7574 35.2455C22.0144 35.0509 22.2169 34.7933 22.3453 34.4977L29.2125 18.7008C29.7355 18.7664 30.2646 18.7664 30.7875 18.7008L37.6547 34.4977C37.7831 34.7933 37.9856 35.0509 38.2426 35.2455C38.4996 35.4401 38.8025 35.5652 39.1219 35.6086C39.2058 35.6199 39.2904 35.6254 39.375 35.625C39.6547 35.6238 39.9306 35.56 40.1824 35.4383C40.4342 35.3167 40.6557 35.1402 40.8305 34.9219L48.5484 25.425L45.2859 45ZM51.5625 21.5625C51.0062 21.5625 50.4625 21.3976 50 21.0885C49.5375 20.7795 49.177 20.3402 48.9641 19.8263C48.7512 19.3124 48.6955 18.7469 48.8041 18.2013C48.9126 17.6557 49.1804 17.1546 49.5738 16.7613C49.9671 16.3679 50.4682 16.1001 51.0138 15.9915C51.5594 15.883 52.1249 15.9387 52.6388 16.1516C53.1527 16.3645 53.592 16.7249 53.901 17.1875C54.2101 17.65 54.375 18.1937 54.375 18.75C54.375 19.4959 54.0787 20.2113 53.5512 20.7387C53.0238 21.2662 52.3084 21.5625 51.5625 21.5625Z" fill="white"/>
</svg>
