<svg width="60" height="60" viewBox="0 0 60 60" fill="none" xmlns="http://www.w3.org/2000/svg">
<path d="M28.125 24.1875V41.25C28.125 41.7473 28.3225 42.2242 28.6742 42.5759C29.0258 42.9275 29.5027 43.125 30 43.125C30.4973 43.125 30.9742 42.9275 31.3258 42.5759C31.6775 42.2242 31.875 41.7473 31.875 41.25V24.1875C34.1513 23.7229 36.174 22.4296 37.551 20.5583C38.9279 18.6871 39.561 16.3712 39.3275 14.0597C39.094 11.7482 38.0105 9.60571 36.2872 8.04766C34.5638 6.4896 32.3233 5.62695 30 5.62695C27.6767 5.62695 25.4362 6.4896 23.7128 8.04766C21.9895 9.60571 20.906 11.7482 20.6725 14.0597C20.439 16.3712 21.0721 18.6871 22.449 20.5583C23.826 22.4296 25.8487 23.7229 28.125 24.1875ZM30 9.37504C31.1125 9.37504 32.2001 9.70494 33.1251 10.323C34.0501 10.9411 34.7711 11.8196 35.1968 12.8474C35.6226 13.8753 35.734 15.0063 35.5169 16.0974C35.2999 17.1886 34.7641 18.1908 33.9775 18.9775C33.1908 19.7642 32.1885 20.2999 31.0974 20.517C30.0062 20.734 28.8752 20.6226 27.8474 20.1969C26.8196 19.7711 25.9411 19.0501 25.323 18.1251C24.7049 17.2001 24.375 16.1126 24.375 15C24.375 13.5082 24.9676 12.0775 26.0225 11.0226C27.0774 9.96767 28.5082 9.37504 30 9.37504ZM56.25 41.25C56.25 48.5578 42.7242 52.5 30 52.5C17.2758 52.5 3.75 48.5578 3.75 41.25C3.75 39.436 4.64297 36.7664 8.90625 34.3571C11.7797 32.7305 15.7312 31.4813 20.3367 30.743C20.5803 30.7045 20.8291 30.7144 21.0689 30.7721C21.3087 30.8298 21.5348 30.9341 21.7343 31.0792C21.9337 31.2242 22.1027 31.4072 22.2314 31.6175C22.3602 31.8279 22.4463 32.0615 22.4848 32.3051C22.5232 32.5487 22.5134 32.7975 22.4557 33.0373C22.398 33.2771 22.2936 33.5032 22.1486 33.7027C22.0035 33.9021 21.8206 34.0711 21.6103 34.1998C21.3999 34.3286 21.1663 34.4147 20.9227 34.4532C16.8117 35.1141 13.1883 36.2414 10.7461 37.6289C8.68359 38.7891 7.5 40.111 7.5 41.25C7.5 44.3813 16.0594 48.75 30 48.75C43.9406 48.75 52.5 44.3813 52.5 41.25C52.5 40.111 51.3164 38.7891 49.2539 37.6196C46.8023 36.2321 43.1883 35.1047 39.0773 34.4438C38.8286 34.4113 38.5888 34.3292 38.3723 34.2024C38.1559 34.0755 37.967 33.9065 37.8171 33.7054C37.6671 33.5042 37.559 33.2751 37.4992 33.0314C37.4394 32.7877 37.4292 32.5345 37.469 32.2868C37.5089 32.0391 37.598 31.8019 37.7312 31.5893C37.8644 31.3766 38.0389 31.1929 38.2444 31.0489C38.4499 30.905 38.6822 30.8037 38.9275 30.7512C39.1728 30.6986 39.4262 30.6958 39.6727 30.743C44.2781 31.4813 48.2297 32.7305 51.1031 34.3571C55.357 36.7664 56.25 39.436 56.25 41.25Z" fill="white"/>
</svg>
