<svg width="50" height="50" viewBox="0 0 50 50" fill="none" xmlns="http://www.w3.org/2000/svg">
<path d="M49.9631 3.78672C49.9039 2.81157 49.4897 1.89183 48.7989 1.20102C48.108 0.510218 47.1882 0.0961199 46.2129 0.0368598C43.0677 -0.150633 35.0297 0.136856 28.3593 6.80411L27.1717 8.00656H12.5883C12.061 8.00359 11.5383 8.1055 11.0507 8.30635C10.5631 8.5072 10.1204 8.80299 9.74814 9.17652L1.17261 17.7562C0.646695 18.2817 0.277658 18.9434 0.106914 19.6669C-0.063831 20.3905 -0.029526 21.1473 0.205979 21.8524C0.441484 22.5576 0.868868 23.1832 1.44017 23.6589C2.01147 24.1347 2.70407 24.4419 3.44025 24.5459L13.0583 25.8884L24.1115 36.9405L25.4541 46.5626C25.5574 47.2988 25.8645 47.9914 26.3407 48.5621C26.817 49.1329 27.4435 49.5591 28.1493 49.7925C28.5604 49.9298 28.9909 49.9999 29.4244 50C29.9492 50.001 30.469 49.8981 30.9539 49.6973C31.4388 49.4965 31.8791 49.2018 32.2495 48.83L40.8301 40.2554C41.2036 39.8832 41.4995 39.4404 41.7003 38.9529C41.9012 38.4654 42.0031 37.9427 42.0001 37.4155V22.8335L43.1927 21.6411C49.8631 14.9713 50.1507 6.9341 49.9631 3.78672ZM12.5883 12.0064H23.1715L13.2884 21.886L3.99778 20.5911L12.5883 12.0064ZM31.192 9.644C33.1139 7.71042 35.4263 6.20915 37.9748 5.24046C40.5233 4.27178 43.2492 3.85798 45.9704 4.02671C46.1457 6.74906 45.7361 9.47738 44.7693 12.0283C43.8025 14.5793 42.3007 16.8937 40.365 18.8162L25.9992 33.1756L16.8286 24.006L31.192 9.644ZM37.9999 37.4155L29.4169 46.0051L28.1193 36.713L37.9999 26.8334V37.4155ZM19.4587 39.7904C18.3337 42.2553 14.5709 48.0051 3.99778 48.0051C3.46732 48.0051 2.95858 47.7944 2.58348 47.4193C2.20839 47.0442 1.99766 46.5356 1.99766 46.0051C1.99766 35.433 7.74802 31.6707 10.2132 30.5432C10.4522 30.4342 10.7103 30.3734 10.9729 30.3641C11.2354 30.3549 11.4972 30.3975 11.7433 30.4894C11.9894 30.5813 12.215 30.7208 12.4071 30.8999C12.5993 31.079 12.7543 31.2942 12.8633 31.5332C12.9723 31.7722 13.0332 32.0303 13.0424 32.2928C13.0517 32.5553 13.0091 32.8171 12.9172 33.0632C12.8252 33.3092 12.6857 33.5348 12.5066 33.7269C12.3275 33.9191 12.1123 34.0741 11.8733 34.1831C10.2657 34.9156 6.71795 37.273 6.09291 43.9102C12.7308 43.2852 15.0935 39.7379 15.821 38.1304C15.93 37.8914 16.085 37.6763 16.2772 37.4972C16.4694 37.3181 16.695 37.1786 16.9411 37.0866C17.1871 36.9947 17.4489 36.9522 17.7115 36.9614C17.974 36.9706 18.2322 37.0315 18.4712 37.1405C18.7102 37.2495 18.9254 37.4045 19.1045 37.5966C19.2836 37.7888 19.4231 38.0143 19.5151 38.2604C19.607 38.5065 19.6496 38.7682 19.6403 39.0307C19.6311 39.2933 19.5702 39.5514 19.4612 39.7904H19.4587Z" fill="black"/>
</svg>
