<svg width="50" height="50" viewBox="0 0 50 50" fill="none" xmlns="http://www.w3.org/2000/svg">
<path d="M43.75 9.37501V18.75C43.75 19.1644 43.5854 19.5618 43.2924 19.8549C42.9993 20.1479 42.6019 20.3125 42.1875 20.3125H32.8125C32.3981 20.3125 32.0007 20.1479 31.7076 19.8549C31.4146 19.5618 31.25 19.1644 31.25 18.75C31.25 18.3356 31.4146 17.9382 31.7076 17.6452C32.0007 17.3521 32.3981 17.1875 32.8125 17.1875H38.416L35.5586 14.3301C32.6546 11.4129 28.7119 9.7671 24.5957 9.75391H24.5078C20.4261 9.74434 16.5047 11.342 13.5918 14.2012C13.2934 14.4797 12.8978 14.6305 12.4897 14.6211C12.0816 14.6117 11.6934 14.443 11.4081 14.1511C11.1228 13.8591 10.963 13.4671 10.9631 13.0589C10.9631 12.6507 11.1229 12.2587 11.4082 11.9668C14.9385 8.51641 19.6871 6.59743 24.6235 6.62631C29.5599 6.6552 34.2857 8.62962 37.7754 12.1211L40.625 14.9785V9.37501C40.625 8.96061 40.7896 8.56318 41.0826 8.27015C41.3757 7.97713 41.7731 7.81251 42.1875 7.81251C42.6019 7.81251 42.9993 7.97713 43.2924 8.27015C43.5854 8.56318 43.75 8.96061 43.75 9.37501ZM36.4082 35.7988C33.4665 38.6723 29.5105 40.2703 25.3983 40.2462C21.2861 40.222 17.3492 38.5778 14.4414 35.6699L11.584 32.8125H17.1875C17.6019 32.8125 17.9993 32.6479 18.2924 32.3549C18.5854 32.0618 18.75 31.6644 18.75 31.25C18.75 30.8356 18.5854 30.4382 18.2924 30.1451C17.9993 29.8521 17.6019 29.6875 17.1875 29.6875H7.8125C7.3981 29.6875 7.00067 29.8521 6.70765 30.1451C6.41462 30.4382 6.25 30.8356 6.25 31.25V40.625C6.25 41.0394 6.41462 41.4368 6.70765 41.7299C7.00067 42.0229 7.3981 42.1875 7.8125 42.1875C8.2269 42.1875 8.62433 42.0229 8.91735 41.7299C9.21038 41.4368 9.375 41.0394 9.375 40.625V35.0215L12.2324 37.8789C15.7172 41.3812 20.45 43.3567 25.3906 43.3711H25.4941C30.3927 43.3837 35.0991 41.466 38.5938 38.0332C38.8791 37.7413 39.0389 37.3493 39.0389 36.9411C39.0389 36.5329 38.8792 36.1409 38.5939 35.8489C38.3086 35.557 37.9203 35.3883 37.5122 35.3789C37.1041 35.3696 36.7086 35.5203 36.4102 35.7988H36.4082Z" fill="black"/>
</svg>
