<svg width="40" height="40" viewBox="0 0 40 40" fill="none" xmlns="http://www.w3.org/2000/svg">
<path d="M35.8844 17.1344L28.3844 24.6344C28.1498 24.8689 27.8317 25.0007 27.5 25.0007C27.1683 25.0007 26.8502 24.8689 26.6156 24.6344C26.3811 24.3998 26.2493 24.0817 26.2493 23.75C26.2493 23.4183 26.3811 23.1002 26.6156 22.8656L31.9828 17.5H25.7813C22.7323 17.4992 19.7695 18.5118 17.3588 20.3785C14.9481 22.2453 13.2263 24.8604 12.4641 27.8125C12.3812 28.1337 12.1741 28.4088 11.8884 28.5773C11.6027 28.7457 11.2618 28.7938 10.9406 28.711C10.6195 28.6281 10.3444 28.421 10.1759 28.1353C10.0074 27.8496 9.95931 27.5087 10.0422 27.1875C10.9416 23.6977 12.9762 20.6062 15.8256 18.3998C18.675 16.1933 22.1774 14.9973 25.7813 15H31.9859L26.6156 9.6344C26.4995 9.51826 26.4074 9.38039 26.3445 9.22864C26.2817 9.0769 26.2493 8.91427 26.2493 8.75002C26.2493 8.58578 26.2817 8.42314 26.3445 8.2714C26.4074 8.11966 26.4995 7.98179 26.6156 7.86565C26.8502 7.6311 27.1683 7.49933 27.5 7.49933C27.6642 7.49933 27.8269 7.53168 27.9786 7.59453C28.1304 7.65739 28.2682 7.74951 28.3844 7.86565L35.8844 15.3656C36.0006 15.4817 36.0928 15.6196 36.1557 15.7713C36.2186 15.9231 36.251 16.0858 36.251 16.25C36.251 16.4143 36.2186 16.577 36.1557 16.7287C36.0928 16.8804 36.0006 17.0183 35.8844 17.1344ZM30 32.5H6.25V13.75C6.25 13.4185 6.1183 13.1006 5.88388 12.8661C5.64946 12.6317 5.33152 12.5 5 12.5C4.66848 12.5 4.35054 12.6317 4.11612 12.8661C3.8817 13.1006 3.75 13.4185 3.75 13.75V33.75C3.75 34.0815 3.8817 34.3995 4.11612 34.6339C4.35054 34.8683 4.66848 35 5 35H30C30.3315 35 30.6495 34.8683 30.8839 34.6339C31.1183 34.3995 31.25 34.0815 31.25 33.75C31.25 33.4185 31.1183 33.1006 30.8839 32.8661C30.6495 32.6317 30.3315 32.5 30 32.5Z" fill="#004AAD"/>
</svg>
