<svg width="40" height="40" viewBox="0 0 40 40" fill="none" xmlns="http://www.w3.org/2000/svg">
<path d="M37.3985 10.95C37.2711 10.5527 37.0281 10.2024 36.7004 9.94411C36.3728 9.68578 35.9755 9.53115 35.5594 9.50003L29.7875 9.04378L27.5672 3.7844C27.405 3.40354 27.1345 3.07876 26.7891 2.85048C26.4438 2.6222 26.039 2.50049 25.625 2.50049C25.2111 2.50049 24.8062 2.6222 24.4609 2.85048C24.1156 3.07876 23.845 3.40354 23.6828 3.7844L21.4625 9.04378L15.6906 9.50003C15.2762 9.53057 14.8802 9.68385 14.5532 9.94034C14.2262 10.1968 13.983 10.5449 13.8546 10.9402C13.7262 11.3354 13.7184 11.76 13.8322 12.1597C13.9461 12.5594 14.1764 12.9161 14.4938 13.1844L18.8781 16.8844L17.5406 22.4141C17.4434 22.8146 17.4672 23.2349 17.609 23.6218C17.7509 24.0088 18.0044 24.3449 18.3375 24.5875C18.6737 24.8353 19.0758 24.9779 19.493 24.997C19.9102 25.0162 20.3238 24.9112 20.6813 24.6953L25.625 21.7188L30.5703 24.6969C30.928 24.9122 31.3415 25.0168 31.7585 24.9977C32.1756 24.9785 32.5777 24.8363 32.9141 24.5891C33.2466 24.3459 33.4996 24.0097 33.6411 23.6229C33.7827 23.2361 33.8064 22.816 33.7094 22.4157L32.3719 16.886L36.7563 13.186C37.0738 12.9196 37.3045 12.5645 37.4189 12.1661C37.5333 11.7677 37.5262 11.3443 37.3985 10.95ZM30.1688 15.4688C29.9914 15.6187 29.8593 15.815 29.7872 16.0358C29.7152 16.2566 29.7061 16.4931 29.761 16.7188L31.0547 22.0641L26.2703 19.1875C26.0757 19.0704 25.8529 19.0085 25.6258 19.0085C25.3987 19.0085 25.1759 19.0704 24.9813 19.1875L20.1969 22.0672L21.4906 16.7188C21.5453 16.493 21.536 16.2564 21.4637 16.0356C21.3914 15.8148 21.2589 15.6185 21.0813 15.4688L16.875 11.9157L22.425 11.4766C22.6534 11.4585 22.8725 11.3779 23.0582 11.2437C23.2439 11.1095 23.3892 10.9268 23.4781 10.7157L25.625 5.61097L27.7797 10.7157C27.8686 10.9268 28.0139 11.1095 28.1996 11.2437C28.3854 11.3779 28.6044 11.4585 28.8328 11.4766L34.3844 11.9157L30.1688 15.4688ZM13.7625 19.2469L4.6344 28.3844C4.39985 28.619 4.08173 28.7507 3.75002 28.7507C3.41832 28.7507 3.1002 28.619 2.86565 28.3844C2.6311 28.1499 2.49933 27.8317 2.49933 27.5C2.49933 27.1683 2.6311 26.8502 2.86565 26.6157L11.9985 17.4828C12.233 17.2483 12.5511 17.1165 12.8828 17.1165C13.2145 17.1165 13.5327 17.2483 13.7672 17.4828C14.0018 17.7174 14.1335 18.0355 14.1335 18.3672C14.1335 18.6989 14.0018 19.017 13.7672 19.2516L13.7625 19.2469ZM15.4516 27.0391C15.6858 27.2735 15.8174 27.5913 15.8174 27.9227C15.8174 28.2541 15.6858 28.5719 15.4516 28.8063L7.1344 37.1344C7.01826 37.2505 6.88039 37.3427 6.72864 37.4055C6.5769 37.4684 6.41427 37.5007 6.25002 37.5007C6.08578 37.5007 5.92314 37.4684 5.7714 37.4055C5.61966 37.3427 5.48179 37.2505 5.36565 37.1344C5.24951 37.0183 5.15739 36.8804 5.09453 36.7286C5.03168 36.5769 4.99933 36.4143 4.99933 36.25C4.99933 36.0858 5.03168 35.9231 5.09453 35.7714C5.15739 35.6197 5.24951 35.4818 5.36565 35.3657L13.6891 27.0438C13.9235 26.8095 14.2413 26.678 14.5727 26.678C14.9041 26.678 15.2219 26.8095 15.4563 27.0438L15.4516 27.0391ZM26.8578 26.8828C26.9741 26.9989 27.0663 27.1368 27.1292 27.2885C27.1921 27.4403 27.2244 27.6029 27.2244 27.7672C27.2244 27.9315 27.1921 28.0941 27.1292 28.2459C27.0663 28.3976 26.9741 28.5355 26.8578 28.6516L18.3766 37.1328C18.142 37.3674 17.8239 37.4992 17.4922 37.4992C17.1605 37.4992 16.8424 37.3674 16.6078 37.1328C16.3733 36.8983 16.2415 36.5802 16.2415 36.2485C16.2415 35.9168 16.3733 35.5986 16.6078 35.3641L25.0907 26.8828C25.207 26.7658 25.3453 26.6729 25.4977 26.6096C25.65 26.5463 25.8135 26.5137 25.9785 26.5139C26.1435 26.514 26.3068 26.5468 26.4591 26.6104C26.6114 26.674 26.7495 26.7671 26.8657 26.8844L26.8578 26.8828Z" fill="black"/>
</svg>
