<svg width="60" height="60" viewBox="0 0 60 60" fill="none" xmlns="http://www.w3.org/2000/svg">
<path d="M52.0008 19.4906C54.6027 24.9323 55.0966 31.1449 53.3873 36.9294C51.6779 42.7139 47.8865 47.6602 42.7447 50.8136C37.603 53.9671 31.4753 55.1041 25.5445 54.0053C19.6137 52.9066 14.3001 49.6498 10.6292 44.8637C6.95837 40.0776 5.1905 34.1014 5.66681 28.0885C6.14312 22.0756 8.82985 16.4522 13.2084 12.3037C17.587 8.15523 23.3471 5.7757 29.377 5.62438C35.4068 5.47307 41.279 7.56069 45.8602 11.4843L51.1735 6.16871C51.5253 5.81688 52.0025 5.61923 52.5 5.61923C52.9976 5.61923 53.4748 5.81688 53.8266 6.16871C54.1784 6.52053 54.3761 6.99771 54.3761 7.49527C54.3761 7.99283 54.1784 8.47001 53.8266 8.82183L31.3266 31.3218C30.9748 31.6737 30.4976 31.8713 30 31.8713C29.5025 31.8713 29.0253 31.6737 28.6735 31.3218C28.3216 30.97 28.124 30.4928 28.124 29.9953C28.124 29.4977 28.3216 29.0205 28.6735 28.6687L35.1703 22.1718C33.4096 21.0073 31.3074 20.4712 29.204 20.6501C27.1006 20.8291 25.1192 21.7127 23.5805 23.1579C22.0418 24.6031 21.0359 26.5253 20.7256 28.6133C20.4153 30.7014 20.8188 32.833 21.8708 34.6632C22.9227 36.4934 24.5616 37.915 26.522 38.6979C28.4825 39.4807 30.6497 39.579 32.673 38.9769C34.6963 38.3747 36.4571 37.1073 37.6704 35.3799C38.8838 33.6525 39.4786 31.5661 39.3586 29.4586C39.3448 29.2123 39.3796 28.9658 39.461 28.733C39.5424 28.5002 39.6689 28.2857 39.8332 28.1018C39.9975 27.9179 40.1965 27.7682 40.4187 27.6612C40.6408 27.5541 40.8819 27.4919 41.1282 27.4781C41.6254 27.4501 42.1135 27.6208 42.4849 27.9527C42.6688 28.117 42.8185 28.3159 42.9255 28.5381C43.0326 28.7603 43.0948 29.0014 43.1086 29.2476C43.2796 32.2307 42.4275 35.1828 40.6934 37.616C38.9592 40.0493 36.4467 41.8179 33.5711 42.6298C30.6955 43.4416 27.629 43.2479 24.8784 42.0808C22.1278 40.9137 19.8578 38.843 18.4435 36.2109C17.0292 33.5789 16.5553 30.543 17.1002 27.6052C17.645 24.6673 19.176 22.0033 21.44 20.0534C23.7041 18.1035 26.5657 16.9845 29.5519 16.8813C32.5381 16.7781 35.4701 17.6969 37.8633 19.4859L43.1953 14.1539C39.2878 10.9096 34.3195 9.22346 29.2445 9.4192C24.1696 9.61493 19.3459 11.6788 15.6998 15.2143C12.0538 18.7499 9.84262 23.5079 9.49091 28.5744C9.1392 33.6409 10.6718 38.6588 13.7943 42.6642C16.9168 46.6696 21.4091 49.3802 26.4084 50.2753C31.4076 51.1703 36.5613 50.1868 40.8796 47.5136C45.1978 44.8404 48.3762 40.666 49.8042 35.7922C51.2323 30.9183 50.8093 25.6887 48.6164 21.1078C48.402 20.659 48.3746 20.1434 48.5403 19.6744C48.706 19.2054 49.0512 18.8214 49.5 18.607C49.9488 18.3925 50.4644 18.3652 50.9334 18.5309C51.4024 18.6966 51.7864 19.0418 52.0008 19.4906Z" fill="white"/>
</svg>
