<svg width="40" height="40" viewBox="0 0 40 40" fill="none" xmlns="http://www.w3.org/2000/svg">
<g clip-path="url(#clip0_204_397)">
<path d="M40 21.2499C40 21.5814 39.8683 21.8994 39.6339 22.1338C39.3995 22.3682 39.0815 22.4999 38.75 22.4999H36.25V24.9999C36.25 25.3314 36.1183 25.6494 35.8839 25.8838C35.6495 26.1182 35.3315 26.2499 35 26.2499C34.6685 26.2499 34.3505 26.1182 34.1161 25.8838C33.8817 25.6494 33.75 25.3314 33.75 24.9999V22.4999H31.25C30.9185 22.4999 30.6005 22.3682 30.3661 22.1338C30.1317 21.8994 30 21.5814 30 21.2499C30 20.9184 30.1317 20.6004 30.3661 20.366C30.6005 20.1316 30.9185 19.9999 31.25 19.9999H33.75V17.4999C33.75 17.1684 33.8817 16.8504 34.1161 16.616C34.3505 16.3816 34.6685 16.2499 35 16.2499C35.3315 16.2499 35.6495 16.3816 35.8839 16.616C36.1183 16.8504 36.25 17.1684 36.25 17.4999V19.9999H38.75C39.0815 19.9999 39.3995 20.1316 39.6339 20.366C39.8683 20.6004 40 20.9184 40 21.2499ZM30.9578 30.4452C31.1712 30.6992 31.275 31.0276 31.2463 31.3582C31.2176 31.6887 31.0587 31.9943 30.8047 32.2077C30.5506 32.4211 30.2222 32.5249 29.8917 32.4962C29.5612 32.4675 29.2556 32.3086 29.0422 32.0546C25.8984 28.3108 21.5766 26.2499 16.875 26.2499C12.1734 26.2499 7.85155 28.3108 4.7078 32.0546C4.49439 32.3084 4.18888 32.4671 3.8585 32.4956C3.52811 32.5242 3.19991 32.4203 2.94608 32.2069C2.69226 31.9935 2.53362 31.688 2.50505 31.3576C2.47648 31.0272 2.58032 30.699 2.79374 30.4452C5.12812 27.6671 8.03124 25.6936 11.2578 24.6374C9.29828 23.4169 7.78956 21.5915 6.95989 19.4372C6.13022 17.2829 6.02475 14.917 6.65944 12.6975C7.29413 10.4779 8.63444 8.52547 10.4776 7.13549C12.3208 5.74552 14.5665 4.99365 16.875 4.99365C19.1835 4.99365 21.4292 5.74552 23.2724 7.13549C25.1155 8.52547 26.4559 10.4779 27.0905 12.6975C27.7252 14.917 27.6198 17.2829 26.7901 19.4372C25.9604 21.5915 24.4517 23.4169 22.4922 24.6374C25.7187 25.6936 28.6219 27.6671 30.9578 30.4452ZM16.875 23.7499C18.482 23.7499 20.0528 23.2734 21.389 22.3806C22.7251 21.4878 23.7666 20.2189 24.3815 18.7342C24.9965 17.2496 25.1574 15.6159 24.8439 14.0398C24.5304 12.4637 23.7565 11.016 22.6202 9.87966C21.4839 8.74336 20.0362 7.96953 18.4601 7.65602C16.884 7.34252 15.2503 7.50342 13.7657 8.11838C12.281 8.73334 11.0121 9.77474 10.1193 11.1109C9.22651 12.447 8.74999 14.0179 8.74999 15.6249C8.75247 17.779 9.60929 19.8442 11.1325 21.3674C12.6557 22.8906 14.7209 23.7474 16.875 23.7499Z" fill="black"/>
</g>
<defs>
<clipPath id="clip0_204_397">
<rect width="40" height="40" fill="white"/>
</clipPath>
</defs>
</svg>
