<svg width="140" height="40" viewBox="0 0 140 40" fill="none" xmlns="http://www.w3.org/2000/svg">
<path d="M3.83817 23.0726C4.91678 23.0726 5.8308 23.472 6.58373 24.269C7.3349 25.0678 7.71137 26.0357 7.71137 27.1744C7.71137 28.2946 7.3349 29.2532 6.58373 30.0502C5.8308 30.8471 4.91678 31.2465 3.83817 31.2465C2.78233 31.2465 1.87881 30.8471 1.12764 30.0502C0.374712 29.2532 0 28.2946 0 27.1744C0 26.0357 0.374712 25.0678 1.12764 24.269C1.87881 23.472 2.78233 23.0726 3.83817 23.0726Z" fill="#004AAD"/>
<path d="M21.9838 12.3946H28.8477L15.281 40H8.41713L14.3775 27.8581L6.19687 12.3946H13.0608L17.8795 21.7871L21.9838 12.3946Z" fill="#004AAD"/>
<path d="M28.9645 28.5343C27.0489 26.7267 26.0928 24.4065 26.0928 21.5716C26.0928 18.7386 27.0891 16.4109 29.0835 14.5866C31.0814 12.7642 33.5521 11.8521 36.4937 11.8521C39.3881 11.8521 41.8272 12.7717 43.8129 14.6089C45.7967 16.4425 46.7896 18.7628 46.7896 21.5716C46.7896 24.3804 45.8178 26.697 43.8759 28.5194C41.9376 30.3381 39.4774 31.2465 36.4937 31.2465C33.3927 31.2465 30.8835 30.3437 28.9645 28.5343ZM33.5801 18.4655C32.8044 19.2736 32.4174 20.3084 32.4174 21.5716C32.4174 22.8311 32.7851 23.8584 33.524 24.6554C34.2665 25.4542 35.2435 25.8517 36.4587 25.8517C37.6249 25.8517 38.5844 25.4486 39.3373 24.6405C40.0885 23.8343 40.465 22.8107 40.465 21.5716C40.465 20.3084 40.0763 19.2736 39.3023 18.4655C38.5266 17.6537 37.5793 17.2469 36.4587 17.2469C35.3136 17.2469 34.354 17.6537 33.5801 18.4655Z" fill="#004AAD"/>
<path d="M52.3453 12.3946V21.1035C52.3453 22.9129 52.6009 24.1984 53.1157 24.9601C53.634 25.7236 54.5095 26.1044 55.7422 26.1044C56.9784 26.1044 57.8539 25.7236 58.3687 24.9601C58.887 24.1984 59.1461 22.9129 59.1461 21.1035V12.3946H65.0995V22.6417C65.0995 25.6883 64.3518 27.886 62.8582 29.2328C61.3682 30.5759 58.9956 31.2465 55.7422 31.2465C52.4871 31.2465 50.1128 30.5759 48.6192 29.2328C47.1291 27.886 46.3849 25.6883 46.3849 22.6417V12.3946H52.3453Z" fill="#004AAD"/>
<path d="M65.9414 30.7115V12.3946H71.9018V15.0325H71.9718C72.0139 14.9396 72.0839 14.8207 72.182 14.6758C72.2835 14.5328 72.5041 14.282 72.8403 13.9253C73.18 13.5686 73.5407 13.2491 73.9189 12.9667C74.3007 12.6806 74.7962 12.4224 75.4038 12.1939C76.0096 11.9673 76.626 11.8521 77.2528 11.8521C77.9059 11.8521 78.5451 11.9487 79.1719 12.1419C79.8023 12.3314 80.261 12.5209 80.5517 12.7141L81.021 12.9965L78.5346 18.3541C77.7921 17.6909 76.759 17.3583 75.4388 17.3583C74.7191 17.3583 74.101 17.5255 73.5827 17.8562C73.068 18.1887 72.7038 18.5918 72.4901 19.0674C72.2748 19.543 72.1224 19.9498 72.0349 20.2861C71.9456 20.6186 71.9018 20.8787 71.9018 21.0663V30.7115H65.9414Z" fill="#004AAD"/>
<path d="M91.9341 1.24835V22.389C91.9341 25.2721 91.1865 27.4698 89.6929 28.9801C88.2028 30.4923 86.0666 31.2465 83.2842 31.2465C82.5418 31.2465 81.8099 31.1499 81.092 30.9567C80.3723 30.7672 79.7647 30.5387 79.271 30.2656C78.7807 29.9944 78.3394 29.7139 77.9472 29.426C77.555 29.1399 77.2678 28.9021 77.0857 28.7126L76.7845 28.4228L78.8017 22.82C80.1272 24.1538 81.3301 24.8189 82.4087 24.8189C83.37 24.8189 84.1422 24.4808 84.727 23.8008C85.3101 23.1228 85.6025 22.0825 85.6025 20.6799V1.24835H91.9341Z" fill="black"/>
<path d="M94.4028 28.5343C92.4872 26.7267 91.5311 24.4065 91.5311 21.5716C91.5311 18.7386 92.5274 16.4109 94.5218 14.5866C96.5197 12.7642 98.9904 11.8521 101.932 11.8521C104.826 11.8521 107.266 12.7717 109.251 14.6089C111.235 16.4425 112.228 18.7628 112.228 21.5716C112.228 24.3804 111.256 26.697 109.314 28.5194C107.376 30.3381 104.916 31.2465 101.932 31.2465C98.831 31.2465 96.3218 30.3437 94.4028 28.5343ZM99.0184 18.4655C98.2427 19.2736 97.8557 20.3084 97.8557 21.5716C97.8557 22.8311 98.2234 23.8584 98.9623 24.6554C99.7048 25.4542 100.682 25.8517 101.897 25.8517C103.063 25.8517 104.023 25.4486 104.776 24.6405C105.527 23.8343 105.903 22.8107 105.903 21.5716C105.903 20.3084 105.515 19.2736 104.741 18.4655C103.965 17.6537 103.018 17.2469 101.897 17.2469C100.752 17.2469 99.7923 17.6537 99.0184 18.4655Z" fill="black"/>
<path d="M129.936 14.6758C131.55 16.5595 132.359 18.8575 132.359 21.5716C132.359 24.2876 131.55 26.5781 129.936 28.4451C128.319 30.314 126.266 31.2465 123.772 31.2465C121.484 31.2465 119.6 30.3771 118.12 28.6383H118.05V30.7115H112.16V0H118.12V14.1408C119.6 12.6156 121.484 11.8521 123.772 11.8521C126.266 11.8521 128.319 12.794 129.936 14.6758ZM124.914 24.6554C125.656 23.8584 126.027 22.8311 126.027 21.5716C126.027 20.3084 125.639 19.2736 124.865 18.4655C124.094 17.6537 123.137 17.2469 121.993 17.2469C120.867 17.2469 119.916 17.6537 119.143 18.4655C118.372 19.2736 117.987 20.3084 117.987 21.5716C117.987 22.8107 118.362 23.8343 119.115 24.6405C119.866 25.4486 120.825 25.8518 121.993 25.8518C123.201 25.8518 124.175 25.4542 124.914 24.6554Z" fill="black"/>
<path d="M136.127 23.0726C137.205 23.0726 138.119 23.472 138.872 24.269C139.624 25.0678 140 26.0357 140 27.1744C140 28.2946 139.624 29.2532 138.872 30.0502C138.119 30.8471 137.205 31.2465 136.127 31.2465C135.071 31.2465 134.167 30.8471 133.416 30.0502C132.663 29.2532 132.289 28.2946 132.289 27.1744C132.289 26.0357 132.663 25.0678 133.416 24.269C134.167 23.472 135.071 23.0726 136.127 23.0726Z" fill="black"/>
</svg>
